<svg width="16" height="17" viewBox="0 0 16 17" fill="none" xmlns="http://www.w3.org/2000/svg">
<path d="M7.33301 9.16667H10.6663M5.33301 9.16667H5.339M8.66634 11.8333H5.33301M10.6663 11.8333H10.6604" stroke="#05162C" stroke-width="1.5" stroke-linecap="round" stroke-linejoin="round"/>
<path d="M12 1.83334V3.16667M4 1.83334V3.16667" stroke="#05162C" stroke-width="1.5" stroke-linecap="round" stroke-linejoin="round"/>
<path d="M1.6665 8.66216C1.6665 5.75729 1.6665 4.30486 2.50125 3.40243C3.336 2.5 4.6795 2.5 7.3665 2.5H8.63317C11.3202 2.5 12.6637 2.5 13.4984 3.40243C14.3332 4.30486 14.3332 5.75729 14.3332 8.66216V9.0045C14.3332 11.9094 14.3332 13.3618 13.4984 14.2642C12.6637 15.1667 11.3202 15.1667 8.63317 15.1667H7.3665C4.6795 15.1667 3.336 15.1667 2.50125 14.2642C1.6665 13.3618 1.6665 11.9094 1.6665 9.0045V8.66216Z" stroke="#05162C" stroke-width="1.5" stroke-linecap="round" stroke-linejoin="round"/>
<path d="M2 5.83333H14" stroke="#05162C" stroke-width="1.5" stroke-linecap="round" stroke-linejoin="round"/>
</svg>
