<svg width="12" height="18" viewBox="0 0 12 18" fill="none" xmlns="http://www.w3.org/2000/svg">
<path d="M10.0165 11.9042C9.71245 11.7514 9.34204 11.8699 9.18317 12.1708C9.03636 12.4774 9.15773 12.8452 9.45817 13.0042C10.1915 13.3792 10.6082 13.8375 10.6082 14.2792C10.6082 15.2208 8.6415 16.2708 6.00817 16.2708C3.37484 16.2708 1.39984 15.2292 1.39984 14.3125C1.39984 13.8792 1.8165 13.4125 2.54984 13.0375C2.76975 12.9493 2.9209 12.7444 2.94017 12.5082C2.95943 12.2721 2.8435 12.0453 2.64079 11.9227C2.43807 11.8 2.18342 11.8025 1.98317 11.9292C0.971418 12.3105 0.266069 13.2359 0.166504 14.3125C0.166504 16.1625 2.6665 17.5542 5.99984 17.5542C9.33317 17.5542 11.8332 16.1625 11.8332 14.3125C11.7428 13.2265 11.0359 12.2894 10.0165 11.9042Z" fill="#99A2AB"/>
<path fill-rule="evenodd" clip-rule="evenodd" d="M5.37484 14.6792V11.0792C2.63058 10.7485 0.61861 8.33775 0.784225 5.57861C0.949839 2.81947 3.23574 0.666672 5.99984 0.666672C8.76394 0.666672 11.0498 2.81947 11.2154 5.57861C11.3811 8.33775 9.36909 10.7485 6.62484 11.0792V14.6792C6.62484 15.0243 6.34502 15.3042 5.99984 15.3042C5.65466 15.3042 5.37484 15.0243 5.37484 14.6792ZM9.68669 4.36761C9.06801 2.87839 7.61246 1.90912 5.99984 1.91249C3.80641 1.91707 2.02942 3.69406 2.02484 5.88749C2.02147 7.50011 2.99074 8.95566 4.47996 9.57434C5.96919 10.193 7.68451 9.85275 8.8248 8.71246C9.9651 7.57216 10.3054 5.85684 9.68669 4.36761Z" fill="#99A2AB"/>
<path d="M3.99151 6.81249C4.33668 6.81249 4.61651 6.53267 4.61651 6.18749C4.61651 5.2302 5.39254 4.45416 6.34984 4.45416C6.69502 4.45416 6.97484 4.17433 6.97484 3.82916C6.97484 3.48398 6.69502 3.20416 6.34984 3.20416C5.5564 3.20636 4.79633 3.52368 4.23685 4.08628C3.67736 4.64889 3.36429 5.41072 3.36651 6.20416C3.3687 6.36771 3.43579 6.52369 3.553 6.63778C3.67021 6.75187 3.82795 6.81472 3.99151 6.81249Z" fill="#99A2AB"/>
</svg>
