<svg width="32" height="32" viewBox="0 0 32 32" fill="none" xmlns="http://www.w3.org/2000/svg">
<path d="M16.0284 19.8182C20.773 19.8182 24.6193 16.1143 24.6193 11.5454C24.6193 6.97653 20.773 3.27271 16.0284 3.27271C11.2838 3.27271 7.4375 6.97653 7.4375 11.5454C7.4375 16.1143 11.2838 19.8182 16.0284 19.8182Z" fill="#05162C"/>
<path d="M20.8522 20.5946C21.2722 20.3782 21.7558 20.6964 21.7558 21.1673V27.3401C21.7558 28.4855 20.954 29.0455 19.9613 28.5746L16.5504 26.9582C16.2576 26.831 15.7995 26.831 15.5067 26.9582L12.0958 28.5746C11.1031 29.0328 10.3013 28.4728 10.3013 27.3273L10.3267 21.1673C10.3267 20.6964 10.8231 20.391 11.2304 20.5946C12.6685 21.3201 14.2976 21.7273 16.0285 21.7273C17.7595 21.7273 19.4013 21.3201 20.8522 20.5946Z" fill="#05162C"/>
</svg>
